<svg width="136" height="136" viewBox="0 0 136 136" fill="none" xmlns="http://www.w3.org/2000/svg">
<g filter="url(#filter0_d_1_117)">
<path d="M68 124C101.137 124 128 97.1371 128 64C128 30.8629 101.137 4 68 4C34.8629 4 8 30.8629 8 64C8 97.1371 34.8629 124 68 124Z" fill="#FF3A62"/>
</g>
<path fill-rule="evenodd" clip-rule="evenodd" d="M75.556 72.6888H70.7632L76.9342 79.9843H73.428L64.2562 69.794H66.6303H72.7934C80.547 69.794 86.8286 63.7219 86.8286 56.2778C86.8286 53.072 85.6603 50.0981 83.7128 47.7856C81.3654 44.2937 84.0762 41.7338 86.4824 41.7338C85.8724 39.0074 82.5392 38.8033 82.5392 38.8033C82.1679 37.7294 81.2244 36.1431 79.3936 36.1431H74.6054C74.5423 36.1431 74.4808 36.1524 74.4204 36.1616C74.3694 36.1693 74.3191 36.177 74.2695 36.1787C71.9148 36.4305 69.6319 38.1493 71.9127 41.5348L71.9135 41.5359C71.9715 41.6165 75.1744 46.0617 75.1744 50.6318C75.1744 58.4254 68.5982 65.2711 60.4806 65.2711H45.5336H42.6511H27.2858C27.2858 67.8039 29.2797 69.794 31.7398 69.794H41.4362H59.6291L68.231 79.9843H41.4362V87.5135H97.4256V79.9843H82.1345L75.556 72.6888ZM68.8898 59.4282C71.2425 57.0607 72.592 53.862 72.592 50.6637C72.592 46.8068 69.7479 42.8116 69.7187 42.7719L69.7014 42.7426L69.682 42.7108C69.049 41.7769 68.6908 40.9533 68.5199 40.1985L47.1073 63.18H60.0848C63.3718 63.18 66.4989 61.8342 68.8898 59.4282ZM31.5331 87.5134H38.6122V79.9097H31.5331V87.5134ZM100.47 87.5717V79.9697L106.571 83.6066L100.47 87.5717ZM77.2811 41.1449C77.9815 41.1449 78.5487 40.6005 78.5487 39.9284C78.5487 39.2562 77.9815 38.7117 77.2811 38.7117C76.5808 38.7117 76.0134 39.2562 76.0134 39.9284C76.0134 40.6005 76.5808 41.1449 77.2811 41.1449Z" fill="white"/>
<defs>
<filter id="filter0_d_1_117" x="0" y="0" width="136" height="136" filterUnits="userSpaceOnUse" color-interpolation-filters="sRGB">
<feFlood flood-opacity="0" result="BackgroundImageFix"/>
<feColorMatrix in="SourceAlpha" type="matrix" values="0 0 0 0 0 0 0 0 0 0 0 0 0 0 0 0 0 0 127 0" result="hardAlpha"/>
<feOffset dy="4"/>
<feGaussianBlur stdDeviation="4"/>
<feColorMatrix type="matrix" values="0 0 0 0 0 0 0 0 0 0 0 0 0 0 0 0 0 0 0.08 0"/>
<feBlend mode="normal" in2="BackgroundImageFix" result="effect1_dropShadow_1_117"/>
<feBlend mode="normal" in="SourceGraphic" in2="effect1_dropShadow_1_117" result="shape"/>
</filter>
</defs>
</svg>
