<svg width="27" height="18" viewBox="0 0 27 18" fill="none" xmlns="http://www.w3.org/2000/svg">
<path fill-rule="evenodd" clip-rule="evenodd" d="M16.5187 12.8963H14.9211L16.9781 15.3281H15.8093L12.7521 11.9313H13.5434H15.5978C18.1823 11.9313 20.2762 9.90728 20.2762 7.42592C20.2762 6.35735 19.8868 5.36603 19.2376 4.59519C18.4551 3.43122 19.3587 2.57794 20.1608 2.57794C19.9575 1.66913 18.8464 1.6011 18.8464 1.6011C18.7226 1.24312 18.4081 0.714355 17.7979 0.714355H16.2018C16.1808 0.714355 16.1603 0.71747 16.1401 0.720526L16.1401 0.720526C16.1231 0.723112 16.1064 0.725655 16.0898 0.726236C15.3049 0.810182 14.544 1.38309 15.3042 2.51161L15.3045 2.51198C15.3238 2.53882 16.3915 4.02056 16.3915 5.54393C16.3915 8.14181 14.1994 10.4237 11.4935 10.4237H6.51118H5.55035H0.428589C0.428589 11.268 1.09323 11.9313 1.91325 11.9313H5.1454H11.2097L14.077 15.3281H5.1454V17.8378H23.8085V15.3281H18.7115L16.5187 12.8963ZM14.2966 8.47613C15.0808 7.68695 15.5306 6.62072 15.5306 5.5546C15.5306 4.26899 14.5826 2.93726 14.5729 2.92402L14.5671 2.91426L14.5606 2.90366C14.3496 2.59235 14.2302 2.31781 14.1733 2.06621L7.03573 9.72671H11.3616C12.4572 9.72671 13.4996 9.27812 14.2966 8.47613ZM1.84441 17.8378H4.2041V15.3032H1.84441V17.8378ZM24.8235 17.8572V15.3232L26.8572 16.5355L24.8235 17.8572ZM17.0937 2.38165C17.3272 2.38165 17.5162 2.20019 17.5162 1.97615C17.5162 1.75211 17.3272 1.57059 17.0937 1.57059C16.8603 1.57059 16.6711 1.75211 16.6711 1.97615C16.6711 2.20019 16.8603 2.38165 17.0937 2.38165Z" fill="white"/>
</svg>
